{
	"asset":{
		"generator":"Khronos glTF Blender I/O v3.6.28",
		"version":"2.0"
	},
	"extensionsUsed":[
		"KHR_materials_specular",
		"KHR_materials_ior"
	],
	"scene":0,
	"scenes":[
		{
			"name":"Scene",
			"nodes":[
				0
			]
		}
	],
	"nodes":[
		{
			"mesh":0,
			"name":"Cube"
		}
	],
	"materials":[
		{
			"doubleSided":true,
			"extensions":{
				"KHR_materials_specular":{
					"specularColorFactor":[
						0.42037705477998155,
						0.42037705477998155,
						0.42037705477998155
					]
				},
				"KHR_materials_ior":{
					"ior":1.4500000476837158
				}
			},
			"name":"Material.001",
			"pbrMetallicRoughness":{
				"baseColorTexture":{
					"index":0
				},
				"metallicFactor":0,
				"roughnessFactor":0.6318181753158569
			}
		}
	],
	"meshes":[
		{
			"name":"Cube.001",
			"primitives":[
				{
					"attributes":{
						"POSITION":0,
						"NORMAL":1,
						"TEXCOORD_0":2
					},
					"indices":3,
					"material":0
				}
			]
		}
	],
	"textures":[
		{
			"sampler":0,
			"source":0
		}
	],
	"images":[
		{
			"bufferView":4,
			"mimeType":"image/png",
			"name":"CubeV2.png"
		}
	],
	"accessors":[
		{
			"bufferView":0,
			"componentType":5126,
			"count":1013,
			"max":[
				0.03268981724977493,
				0.03268975019454956,
				0.03258197009563446
			],
			"min":[
				-0.032689765095710754,
				-0.032689809799194336,
				-0.03258200362324715
			],
			"type":"VEC3"
		},
		{
			"bufferView":1,
			"componentType":5126,
			"count":1013,
			"type":"VEC3"
		},
		{
			"bufferView":2,
			"componentType":5126,
			"count":1013,
			"type":"VEC2"
		},
		{
			"bufferView":3,
			"componentType":5123,
			"count":5184,
			"type":"SCALAR"
		}
	],
	"bufferViews":[
		{
			"buffer":0,
			"byteLength":12156,
			"byteOffset":0,
			"target":34962
		},
		{
			"buffer":0,
			"byteLength":12156,
			"byteOffset":12156,
			"target":34962
		},
		{
			"buffer":0,
			"byteLength":8104,
			"byteOffset":24312,
			"target":34962
		},
		{
			"buffer":0,
			"byteLength":10368,
			"byteOffset":32416,
			"target":34963
		},
		{
			"buffer":0,
			"byteLength":120648,
			"byteOffset":42784
		}
	],
	"samplers":[
		{
			"magFilter":9729,
			"minFilter":9987
		}
	],
	"buffers":[
		{
			"byteLength":163432,
			"uri":"data:application/octet-stream;base64,"
		}
	]
}
